<mxfile host="app.diagrams.net" modified="2022-01-07T09:33:45.822Z" agent="5.0 (Macintosh)" etag="6YFjmFYneeghYtaBtGvg" version="16.2.2" type="github">
  <diagram id="tKitslfAB1BgI3c-y9Ij" name="Page-1">
    <mxGraphModel dx="1186" dy="651" grid="1" gridSize="10" guides="1" tooltips="1" connect="1" arrows="1" fold="1" page="1" pageScale="1" pageWidth="827" pageHeight="1169" math="0" shadow="0">
      <root>
        <mxCell id="0" />
        <mxCell id="1" parent="0" />
        <mxCell id="q2nyMCjTT9pvwlic67CU-5" value="Functional tree" style="swimlane;html=1;startSize=20;horizontal=1;containerType=tree;" parent="1" vertex="1">
          <mxGeometry x="470" y="300" width="1100" height="450" as="geometry" />
        </mxCell>
        <mxCell id="q2nyMCjTT9pvwlic67CU-6" value="" style="edgeStyle=elbowEdgeStyle;elbow=vertical;startArrow=none;endArrow=none;rounded=0;" parent="q2nyMCjTT9pvwlic67CU-5" source="q2nyMCjTT9pvwlic67CU-7" target="q2nyMCjTT9pvwlic67CU-8" edge="1">
          <mxGeometry relative="1" as="geometry" />
        </mxCell>
        <mxCell id="q2nyMCjTT9pvwlic67CU-7" value="Cool down" style="whiteSpace=wrap;html=1;treeFolding=1;treeMoving=1;newEdgeStyle={&quot;edgeStyle&quot;:&quot;elbowEdgeStyle&quot;,&quot;startArrow&quot;:&quot;none&quot;,&quot;endArrow&quot;:&quot;none&quot;};" parent="q2nyMCjTT9pvwlic67CU-5" vertex="1">
          <mxGeometry x="550" y="40" width="120" height="40" as="geometry" />
        </mxCell>
        <mxCell id="q2nyMCjTT9pvwlic67CU-8" value="Sub-technical function 1" style="whiteSpace=wrap;html=1;treeFolding=1;treeMoving=1;newEdgeStyle={&quot;edgeStyle&quot;:&quot;elbowEdgeStyle&quot;,&quot;startArrow&quot;:&quot;none&quot;,&quot;endArrow&quot;:&quot;none&quot;};" parent="q2nyMCjTT9pvwlic67CU-5" vertex="1">
          <mxGeometry x="380" y="140" width="120" height="40" as="geometry" />
        </mxCell>
        <mxCell id="q2nyMCjTT9pvwlic67CU-9" value="" style="edgeStyle=elbowEdgeStyle;elbow=vertical;startArrow=none;endArrow=none;rounded=0;" parent="q2nyMCjTT9pvwlic67CU-5" source="q2nyMCjTT9pvwlic67CU-7" target="q2nyMCjTT9pvwlic67CU-10" edge="1">
          <mxGeometry relative="1" as="geometry">
            <mxPoint x="630" y="860" as="sourcePoint" />
            <Array as="points">
              <mxPoint x="690" y="110" />
            </Array>
          </mxGeometry>
        </mxCell>
        <mxCell id="q2nyMCjTT9pvwlic67CU-10" value="Sub-technical function 2" style="whiteSpace=wrap;html=1;treeFolding=1;treeMoving=1;newEdgeStyle={&quot;edgeStyle&quot;:&quot;elbowEdgeStyle&quot;,&quot;startArrow&quot;:&quot;none&quot;,&quot;endArrow&quot;:&quot;none&quot;};" parent="q2nyMCjTT9pvwlic67CU-5" vertex="1">
          <mxGeometry x="930" y="130" width="120" height="40" as="geometry" />
        </mxCell>
        <mxCell id="q2nyMCjTT9pvwlic67CU-11" value="" style="edgeStyle=elbowEdgeStyle;elbow=vertical;startArrow=none;endArrow=none;rounded=0;" parent="q2nyMCjTT9pvwlic67CU-5" source="q2nyMCjTT9pvwlic67CU-8" target="q2nyMCjTT9pvwlic67CU-12" edge="1">
          <mxGeometry relative="1" as="geometry">
            <mxPoint x="630" y="860" as="sourcePoint" />
          </mxGeometry>
        </mxCell>
        <mxCell id="q2nyMCjTT9pvwlic67CU-12" value="Sub-technical function 1.2" style="whiteSpace=wrap;html=1;treeFolding=1;treeMoving=1;newEdgeStyle={&quot;edgeStyle&quot;:&quot;elbowEdgeStyle&quot;,&quot;startArrow&quot;:&quot;none&quot;,&quot;endArrow&quot;:&quot;none&quot;};" parent="q2nyMCjTT9pvwlic67CU-5" vertex="1">
          <mxGeometry x="480" y="220" width="120" height="40" as="geometry" />
        </mxCell>
        <mxCell id="q2nyMCjTT9pvwlic67CU-13" value="" style="edgeStyle=elbowEdgeStyle;elbow=vertical;startArrow=none;endArrow=none;rounded=0;" parent="q2nyMCjTT9pvwlic67CU-5" source="q2nyMCjTT9pvwlic67CU-8" target="q2nyMCjTT9pvwlic67CU-14" edge="1">
          <mxGeometry relative="1" as="geometry">
            <mxPoint x="630" y="940" as="sourcePoint" />
          </mxGeometry>
        </mxCell>
        <mxCell id="q2nyMCjTT9pvwlic67CU-14" value="Sub-technical function 1.1" style="whiteSpace=wrap;html=1;treeFolding=1;treeMoving=1;newEdgeStyle={&quot;edgeStyle&quot;:&quot;elbowEdgeStyle&quot;,&quot;startArrow&quot;:&quot;none&quot;,&quot;endArrow&quot;:&quot;none&quot;};" parent="q2nyMCjTT9pvwlic67CU-5" vertex="1">
          <mxGeometry x="90" y="220" width="120" height="40" as="geometry" />
        </mxCell>
        <mxCell id="q2nyMCjTT9pvwlic67CU-15" value="" style="edgeStyle=elbowEdgeStyle;elbow=vertical;startArrow=none;endArrow=none;rounded=0;" parent="q2nyMCjTT9pvwlic67CU-5" source="q2nyMCjTT9pvwlic67CU-8" target="q2nyMCjTT9pvwlic67CU-16" edge="1">
          <mxGeometry relative="1" as="geometry">
            <mxPoint x="630" y="940" as="sourcePoint" />
          </mxGeometry>
        </mxCell>
        <mxCell id="q2nyMCjTT9pvwlic67CU-16" value="Sub-technical function 1.3" style="whiteSpace=wrap;html=1;treeFolding=1;treeMoving=1;newEdgeStyle={&quot;edgeStyle&quot;:&quot;elbowEdgeStyle&quot;,&quot;startArrow&quot;:&quot;none&quot;,&quot;endArrow&quot;:&quot;none&quot;};" parent="q2nyMCjTT9pvwlic67CU-5" vertex="1">
          <mxGeometry x="740" y="220" width="120" height="40" as="geometry" />
        </mxCell>
        <mxCell id="q2nyMCjTT9pvwlic67CU-19" value="" style="edgeStyle=elbowEdgeStyle;elbow=vertical;startArrow=none;endArrow=none;rounded=0;" parent="q2nyMCjTT9pvwlic67CU-5" source="q2nyMCjTT9pvwlic67CU-10" target="q2nyMCjTT9pvwlic67CU-20" edge="1">
          <mxGeometry relative="1" as="geometry">
            <mxPoint x="630" y="860" as="sourcePoint" />
          </mxGeometry>
        </mxCell>
        <mxCell id="q2nyMCjTT9pvwlic67CU-20" value="Sub-technical function 2.2" style="whiteSpace=wrap;html=1;treeFolding=1;treeMoving=1;newEdgeStyle={&quot;edgeStyle&quot;:&quot;elbowEdgeStyle&quot;,&quot;startArrow&quot;:&quot;none&quot;,&quot;endArrow&quot;:&quot;none&quot;};" parent="q2nyMCjTT9pvwlic67CU-5" vertex="1">
          <mxGeometry x="930" y="220" width="120" height="40" as="geometry" />
        </mxCell>
        <mxCell id="q2nyMCjTT9pvwlic67CU-21" value="" style="edgeStyle=elbowEdgeStyle;elbow=vertical;startArrow=none;endArrow=none;rounded=0;" parent="q2nyMCjTT9pvwlic67CU-5" source="q2nyMCjTT9pvwlic67CU-14" target="q2nyMCjTT9pvwlic67CU-22" edge="1">
          <mxGeometry relative="1" as="geometry">
            <mxPoint x="780" y="450" as="sourcePoint" />
          </mxGeometry>
        </mxCell>
        <mxCell id="q2nyMCjTT9pvwlic67CU-22" value="Sub-technical function 1.1.1" style="whiteSpace=wrap;html=1;treeFolding=1;treeMoving=1;newEdgeStyle={&quot;edgeStyle&quot;:&quot;elbowEdgeStyle&quot;,&quot;startArrow&quot;:&quot;none&quot;,&quot;endArrow&quot;:&quot;none&quot;};" parent="q2nyMCjTT9pvwlic67CU-5" vertex="1">
          <mxGeometry x="10" y="290" width="120" height="40" as="geometry" />
        </mxCell>
        <mxCell id="q2nyMCjTT9pvwlic67CU-23" value="" style="edgeStyle=elbowEdgeStyle;elbow=vertical;startArrow=none;endArrow=none;rounded=0;" parent="q2nyMCjTT9pvwlic67CU-5" source="q2nyMCjTT9pvwlic67CU-14" target="q2nyMCjTT9pvwlic67CU-24" edge="1">
          <mxGeometry relative="1" as="geometry">
            <mxPoint x="780" y="450" as="sourcePoint" />
          </mxGeometry>
        </mxCell>
        <mxCell id="q2nyMCjTT9pvwlic67CU-24" value="Sub-technical function 1.1.2" style="whiteSpace=wrap;html=1;treeFolding=1;treeMoving=1;newEdgeStyle={&quot;edgeStyle&quot;:&quot;elbowEdgeStyle&quot;,&quot;startArrow&quot;:&quot;none&quot;,&quot;endArrow&quot;:&quot;none&quot;};" parent="q2nyMCjTT9pvwlic67CU-5" vertex="1">
          <mxGeometry x="180" y="290" width="120" height="40" as="geometry" />
        </mxCell>
        <mxCell id="q2nyMCjTT9pvwlic67CU-25" value="" style="edgeStyle=elbowEdgeStyle;elbow=vertical;startArrow=none;endArrow=none;rounded=0;" parent="q2nyMCjTT9pvwlic67CU-5" source="q2nyMCjTT9pvwlic67CU-12" target="q2nyMCjTT9pvwlic67CU-26" edge="1">
          <mxGeometry relative="1" as="geometry">
            <mxPoint x="880" y="450" as="sourcePoint" />
          </mxGeometry>
        </mxCell>
        <mxCell id="q2nyMCjTT9pvwlic67CU-26" value="Sub-technical function 1.2.1" style="whiteSpace=wrap;html=1;treeFolding=1;treeMoving=1;newEdgeStyle={&quot;edgeStyle&quot;:&quot;elbowEdgeStyle&quot;,&quot;startArrow&quot;:&quot;none&quot;,&quot;endArrow&quot;:&quot;none&quot;};" parent="q2nyMCjTT9pvwlic67CU-5" vertex="1">
          <mxGeometry x="420" y="290" width="120" height="40" as="geometry" />
        </mxCell>
        <mxCell id="q2nyMCjTT9pvwlic67CU-27" value="" style="edgeStyle=elbowEdgeStyle;elbow=vertical;startArrow=none;endArrow=none;rounded=0;" parent="q2nyMCjTT9pvwlic67CU-5" source="q2nyMCjTT9pvwlic67CU-12" target="q2nyMCjTT9pvwlic67CU-28" edge="1">
          <mxGeometry relative="1" as="geometry">
            <mxPoint x="880" y="450" as="sourcePoint" />
          </mxGeometry>
        </mxCell>
        <mxCell id="q2nyMCjTT9pvwlic67CU-28" value="Sub-technical function 1.2.2" style="whiteSpace=wrap;html=1;treeFolding=1;treeMoving=1;newEdgeStyle={&quot;edgeStyle&quot;:&quot;elbowEdgeStyle&quot;,&quot;startArrow&quot;:&quot;none&quot;,&quot;endArrow&quot;:&quot;none&quot;};" parent="q2nyMCjTT9pvwlic67CU-5" vertex="1">
          <mxGeometry x="560" y="290" width="120" height="40" as="geometry" />
        </mxCell>
        <mxCell id="q2nyMCjTT9pvwlic67CU-29" value="" style="edgeStyle=elbowEdgeStyle;elbow=vertical;startArrow=none;endArrow=none;rounded=0;" parent="q2nyMCjTT9pvwlic67CU-5" source="q2nyMCjTT9pvwlic67CU-16" target="q2nyMCjTT9pvwlic67CU-30" edge="1">
          <mxGeometry relative="1" as="geometry">
            <mxPoint x="923" y="450" as="sourcePoint" />
          </mxGeometry>
        </mxCell>
        <mxCell id="q2nyMCjTT9pvwlic67CU-30" value="Sub-technical function 1.3.1" style="whiteSpace=wrap;html=1;treeFolding=1;treeMoving=1;newEdgeStyle={&quot;edgeStyle&quot;:&quot;elbowEdgeStyle&quot;,&quot;startArrow&quot;:&quot;none&quot;,&quot;endArrow&quot;:&quot;none&quot;};" parent="q2nyMCjTT9pvwlic67CU-5" vertex="1">
          <mxGeometry x="740" y="290" width="120" height="40" as="geometry" />
        </mxCell>
        <mxCell id="q2nyMCjTT9pvwlic67CU-33" value="" style="edgeStyle=elbowEdgeStyle;elbow=vertical;startArrow=none;endArrow=none;rounded=0;" parent="q2nyMCjTT9pvwlic67CU-5" source="q2nyMCjTT9pvwlic67CU-20" target="q2nyMCjTT9pvwlic67CU-34" edge="1">
          <mxGeometry relative="1" as="geometry">
            <mxPoint x="1140" y="430" as="sourcePoint" />
          </mxGeometry>
        </mxCell>
        <mxCell id="q2nyMCjTT9pvwlic67CU-34" value="&lt;div&gt;Sub-technical function 2.1.2&lt;/div&gt;" style="whiteSpace=wrap;html=1;treeFolding=1;treeMoving=1;newEdgeStyle={&quot;edgeStyle&quot;:&quot;elbowEdgeStyle&quot;,&quot;startArrow&quot;:&quot;none&quot;,&quot;endArrow&quot;:&quot;none&quot;};" parent="q2nyMCjTT9pvwlic67CU-5" vertex="1">
          <mxGeometry x="930" y="290" width="120" height="40" as="geometry" />
        </mxCell>
        <mxCell id="skPELJ2FQvz4pPCXh5I9-1" value="" style="edgeStyle=elbowEdgeStyle;elbow=vertical;startArrow=none;endArrow=none;rounded=0;" parent="q2nyMCjTT9pvwlic67CU-5" source="q2nyMCjTT9pvwlic67CU-8" target="skPELJ2FQvz4pPCXh5I9-2" edge="1">
          <mxGeometry relative="1" as="geometry">
            <mxPoint x="910" y="480" as="sourcePoint" />
          </mxGeometry>
        </mxCell>
        <mxCell id="skPELJ2FQvz4pPCXh5I9-2" value="Sub-technical function 1.1" style="whiteSpace=wrap;html=1;treeFolding=1;treeMoving=1;newEdgeStyle={&quot;edgeStyle&quot;:&quot;elbowEdgeStyle&quot;,&quot;startArrow&quot;:&quot;none&quot;,&quot;endArrow&quot;:&quot;none&quot;};" parent="q2nyMCjTT9pvwlic67CU-5" vertex="1">
          <mxGeometry x="220" y="220" width="120" height="40" as="geometry" />
        </mxCell>
      </root>
    </mxGraphModel>
  </diagram>
</mxfile>
